<?xml version="1.0" encoding="utf-8"?>
<!-- Generator: Adobe Illustrator 16.0.0, SVG Export Plug-In . SVG Version: 6.00 Build 0)  -->
<!DOCTYPE svg PUBLIC "-//W3C//DTD SVG 1.1//EN" "http://www.w3.org/Graphics/SVG/1.1/DTD/svg11.dtd">
<svg version="1.1" id="Ebene_1" xmlns="http://www.w3.org/2000/svg" xmlns:xlink="http://www.w3.org/1999/xlink" x="0px" y="0px"
	 width="566.93px" height="141.73px" viewBox="0 0 566.93 141.73" enable-background="new 0 0 566.93 141.73" xml:space="preserve">
<g opacity="0.35">
	
		<linearGradient id="SVGID_1_" gradientUnits="userSpaceOnUse" x1="70.7927" y1="-122.573" x2="70.7927" y2="-33.7341" gradientTransform="matrix(1 0 0 -1 -14.2554 4.4253)">
		<stop  offset="0.0711" style="stop-color:#FFFFFF;stop-opacity:0"/>
		<stop  offset="0.9442" style="stop-color:#FFFFFF;stop-opacity:0.94"/>
		<stop  offset="1" style="stop-color:#FFFFFF"/>
	</linearGradient>
	<path fill="url(#SVGID_1_)" d="M29.62,104.478h-3.526L40.112,69.73h4.129l12.212,31.504h0.172L68.75,69.729h4.042l14.189,34.748
		H83.37L70.986,72.705h-0.172l-12.126,31.772h-4.386l-12.04-31.772H42.09L29.62,104.478z"/>
	
		<linearGradient id="SVGID_2_" gradientUnits="userSpaceOnUse" x1="108.2878" y1="-122.5735" x2="108.2878" y2="-33.7336" gradientTransform="matrix(1 0 0 -1 -14.2554 4.4253)">
		<stop  offset="0.0711" style="stop-color:#FFFFFF;stop-opacity:0"/>
		<stop  offset="0.9442" style="stop-color:#FFFFFF;stop-opacity:0.94"/>
		<stop  offset="1" style="stop-color:#FFFFFF"/>
	</linearGradient>
	<path fill="url(#SVGID_2_)" d="M95.667,111.035v6.964h-3.269v-6.964H95.667z M95.667,69.729v34.748h-3.269V69.729H95.667z"/>
	
		<linearGradient id="SVGID_3_" gradientUnits="userSpaceOnUse" x1="137.8289" y1="-122.573" x2="137.8289" y2="-33.7341" gradientTransform="matrix(1 0 0 -1 -14.2554 4.4253)">
		<stop  offset="0.0711" style="stop-color:#FFFFFF;stop-opacity:0"/>
		<stop  offset="0.9442" style="stop-color:#FFFFFF;stop-opacity:0.94"/>
		<stop  offset="1" style="stop-color:#FFFFFF"/>
	</linearGradient>
	<path fill="url(#SVGID_3_)" d="M106.073,69.729h3.269v18.794c0,2.117,0.356,4.067,1.075,5.848c0.716,1.78,1.763,3.313,3.139,4.598
		c1.376,1.283,3.053,2.286,5.031,3.009c1.978,0.72,4.199,1.082,6.665,1.082c2.979,0,5.316-0.43,7.009-1.285
		c1.69-0.856,2.952-1.882,3.784-3.075c0.831-1.196,1.333-2.435,1.505-3.719c0.172-1.285,0.258-2.378,0.258-3.279V69.729h3.269
		v21.497c0,0.722-0.029,1.566-0.087,2.537c-0.058,0.967-0.229,1.97-0.516,3.007c-0.288,1.037-0.76,2.063-1.419,3.076
		c-0.66,1.015-1.563,1.927-2.709,2.738c-1.147,0.811-2.623,1.463-4.429,1.96c-1.807,0.494-3.999,0.744-6.579,0.744
		c-1.72,0-3.412-0.182-5.074-0.543c-1.664-0.359-3.197-0.9-4.601-1.622c-1.405-0.721-2.639-1.589-3.698-2.602
		c-1.063-1.016-1.878-2.176-2.451-3.483h-0.172v7.438h-3.269V69.729z"/>
	
		<linearGradient id="SVGID_4_" gradientUnits="userSpaceOnUse" x1="182.4846" y1="-122.5735" x2="182.4846" y2="-33.7321" gradientTransform="matrix(1 0 0 -1 -14.2554 4.4253)">
		<stop  offset="0.0711" style="stop-color:#FFFFFF;stop-opacity:0"/>
		<stop  offset="0.9442" style="stop-color:#FFFFFF;stop-opacity:0.94"/>
		<stop  offset="1" style="stop-color:#FFFFFF"/>
	</linearGradient>
	<path fill="url(#SVGID_4_)" d="M187.687,86.766c0.172,2.478-0.101,4.844-0.816,7.099c-0.719,2.253-1.878,4.226-3.483,5.915
		c-1.606,1.691-3.67,3.03-6.192,4.022c-2.523,0.99-5.504,1.487-8.943,1.487c-3.326,0-6.222-0.53-8.687-1.59
		c-2.466-1.06-4.515-2.467-6.148-4.226c-1.635-1.759-2.838-3.764-3.612-6.018s-1.133-4.575-1.075-6.963
		c-0.058-2.389,0.329-4.654,1.161-6.795c0.831-2.141,2.064-4.012,3.698-5.61c1.634-1.601,3.684-2.862,6.148-3.784
		c2.465-0.924,5.303-1.388,8.515-1.388c5.273,0,9.56,1.07,12.856,3.212c3.296,2.14,5.375,5.262,6.235,9.363h-3.268
		c-0.805-3.244-2.596-5.78-5.375-7.604c-2.782-1.826-6.266-2.739-10.449-2.739c-2.752,0-5.146,0.429-7.182,1.286
		c-2.035,0.854-3.74,2.003-5.116,3.446c-1.376,1.44-2.396,3.109-3.054,5.002c-0.66,1.895-0.96,3.854-0.902,5.883L187.687,86.766
		L187.687,86.766z M151.997,88.997c0.172,1.711,0.658,3.414,1.462,5.104c0.802,1.688,1.892,3.198,3.268,4.528
		c1.376,1.328,3.023,2.399,4.945,3.211c1.92,0.812,4.113,1.218,6.579,1.218c2.521,0,4.772-0.396,6.751-1.186
		c1.978-0.788,3.655-1.825,5.031-3.107c1.376-1.285,2.436-2.783,3.182-4.496c0.744-1.713,1.146-3.472,1.204-5.272H151.997z"/>
	
		<linearGradient id="SVGID_5_" gradientUnits="userSpaceOnUse" x1="225.4636" y1="-122.5735" x2="225.4636" y2="-33.7321" gradientTransform="matrix(1 0 0 -1 -14.2554 4.4253)">
		<stop  offset="0.0711" style="stop-color:#FFFFFF;stop-opacity:0"/>
		<stop  offset="0.9442" style="stop-color:#FFFFFF;stop-opacity:0.94"/>
		<stop  offset="1" style="stop-color:#FFFFFF"/>
	</linearGradient>
	<path fill="url(#SVGID_5_)" d="M193.621,81.29c0.056-2.026,0.544-3.81,1.462-5.341c0.917-1.532,2.178-2.828,3.784-3.888
		c1.604-1.061,3.482-1.85,5.633-2.366c2.149-0.517,4.484-0.778,7.009-0.778c1.948,0,3.941,0.146,5.978,0.44
		c2.034,0.292,3.884,0.811,5.548,1.554c1.661,0.744,3.037,1.725,4.128,2.941c1.089,1.217,1.634,2.771,1.634,4.665
		c0,1.803-0.402,3.288-1.204,4.462c-0.804,1.171-1.907,2.129-3.313,2.873c-1.403,0.743-3.066,1.328-4.986,1.757
		c-1.922,0.429-3.972,0.8-6.149,1.115c-1.776,0.314-3.541,0.632-5.289,0.946c-1.75,0.314-3.326,0.731-4.729,1.25
		c-1.406,0.519-2.537,1.206-3.397,2.063c-0.859,0.854-1.29,1.981-1.29,3.379c0,1.218,0.388,2.254,1.161,3.11
		c0.774,0.854,1.763,1.556,2.967,2.097c1.204,0.54,2.565,0.924,4.085,1.147c1.52,0.227,3.023,0.34,4.516,0.34
		c1.834,0,3.554-0.169,5.159-0.51c1.604-0.336,2.979-0.854,4.129-1.554c1.146-0.698,2.063-1.612,2.752-2.737
		c0.688-1.128,1.03-2.479,1.03-4.057h3.27c0,1.983-0.417,3.674-1.247,5.071c-0.832,1.395-1.979,2.545-3.439,3.444
		c-1.463,0.902-3.183,1.557-5.159,1.963c-1.979,0.405-4.144,0.608-6.493,0.608c-1.893,0-3.784-0.148-5.676-0.439
		c-1.893-0.294-3.6-0.778-5.117-1.454c-1.521-0.678-2.768-1.588-3.741-2.736c-0.976-1.15-1.462-2.582-1.462-4.295
		c0-1.756,0.43-3.21,1.29-4.359c0.859-1.149,2.006-2.072,3.439-2.771c1.434-0.697,3.066-1.25,4.902-1.654
		c1.834-0.406,3.698-0.769,5.59-1.083c1.893-0.314,3.741-0.632,5.546-0.945c1.808-0.316,3.427-0.743,4.859-1.283
		c1.433-0.543,2.58-1.264,3.438-2.165c0.86-0.903,1.291-2.096,1.291-3.582c0-1.488-0.46-2.716-1.377-3.686
		c-0.918-0.97-2.078-1.725-3.481-2.266c-1.406-0.54-2.924-0.912-4.56-1.115c-1.633-0.205-3.168-0.305-4.601-0.305
		c-2.007,0-3.87,0.226-5.59,0.677s-3.226,1.115-4.516,1.995c-1.29,0.879-2.337,1.936-3.139,3.177
		c-0.804,1.239-1.262,2.669-1.376,4.293L193.621,81.29L193.621,81.29z"/>
	
		<linearGradient id="SVGID_6_" gradientUnits="userSpaceOnUse" x1="300.1555" y1="-122.574" x2="300.1555" y2="-33.7322" gradientTransform="matrix(1 0 0 -1 -14.2554 4.4253)">
		<stop  offset="0.0711" style="stop-color:#FFFFFF;stop-opacity:0"/>
		<stop  offset="0.9442" style="stop-color:#FFFFFF;stop-opacity:0.94"/>
		<stop  offset="1" style="stop-color:#FFFFFF"/>
	</linearGradient>
	<path fill="url(#SVGID_6_)" d="M286.9,97.637c5.101,2.438,8,4.09,10.101,5.66c3.899,2.909,5.999,6.288,5.999,9.512
		c0,5.11-5.198,8.489-13.198,8.489c-10.401,0-18.803-5.502-18.803-12.263c0-2.515,0.601-4.009,4.001-10.062
		c-6.001-3.065-8.102-4.246-10.2-5.738c-5.102-3.618-7.701-7.941-7.701-12.5c0-7.076,7.201-11.871,17.603-11.871
		c5.6,0,10.399,1.258,16,4.324l2.3-3.695c3.1,0.157,4.899,0.235,7.1,0.235c2.201,0,4.102-0.079,7.701-0.235l0.701,2.122
		c-4.4,0-5.9,0.786-7.802,3.774l-1.899,2.907c3.5,2.909,5.399,5.188,8,9.669c1.899,3.461,2.399,3.773,7.102,4.011l0.799,2.595
		c-3.698-0.236-5.399-0.315-7.301-0.315c-2,0-3.699,0.079-7.199,0.315l-0.899-2.595c3.399-0.08,4.5-0.55,4.5-1.81
		c0-1.966-3.101-6.053-6.801-9.196L286.9,97.637z M289.1,75.782c-5.301-2.593-8.5-3.458-12.601-3.458
		c-6.001,0-9.602,2.751-9.602,7.389c0,5.188,3.301,9.042,11.602,13.602L289.1,75.782z M283.699,102.904
		c-2.601,4.246-3.199,5.66-3.199,7.547c0,4.402,4.6,8.255,9.899,8.255c3.199,0,5.5-1.808,5.5-4.402
		C295.9,110.529,292.4,107.307,283.699,102.904z"/>
	
		<linearGradient id="SVGID_7_" gradientUnits="userSpaceOnUse" x1="382.8342" y1="-122.5735" x2="382.8342" y2="-33.7321" gradientTransform="matrix(1 0 0 -1 -14.2554 4.4253)">
		<stop  offset="0.0711" style="stop-color:#FFFFFF;stop-opacity:0"/>
		<stop  offset="0.9442" style="stop-color:#FFFFFF;stop-opacity:0.94"/>
		<stop  offset="1" style="stop-color:#FFFFFF"/>
	</linearGradient>
	<path fill="url(#SVGID_7_)" d="M341.659,104.478h-3.524l14.018-34.748h4.127l12.213,31.504h0.173l12.127-31.504h4.041
		l14.188,34.748h-3.611l-12.385-31.772h-0.172l-12.125,31.772h-4.387l-12.039-31.772h-0.172L341.659,104.478z"/>
	
		<linearGradient id="SVGID_8_" gradientUnits="userSpaceOnUse" x1="420.3303" y1="-122.5735" x2="420.3303" y2="-33.7336" gradientTransform="matrix(1 0 0 -1 -14.2554 4.4253)">
		<stop  offset="0.0711" style="stop-color:#FFFFFF;stop-opacity:0"/>
		<stop  offset="0.9442" style="stop-color:#FFFFFF;stop-opacity:0.94"/>
		<stop  offset="1" style="stop-color:#FFFFFF"/>
	</linearGradient>
	<path fill="url(#SVGID_8_)" d="M407.709,111.035v6.964h-3.271v-6.964H407.709z M407.709,69.729v34.748h-3.271V69.729H407.709z"/>
	
		<linearGradient id="SVGID_9_" gradientUnits="userSpaceOnUse" x1="449.8713" y1="-122.573" x2="449.8713" y2="-33.7341" gradientTransform="matrix(1 0 0 -1 -14.2554 4.4253)">
		<stop  offset="0.0711" style="stop-color:#FFFFFF;stop-opacity:0"/>
		<stop  offset="0.9442" style="stop-color:#FFFFFF;stop-opacity:0.94"/>
		<stop  offset="1" style="stop-color:#FFFFFF"/>
	</linearGradient>
	<path fill="url(#SVGID_9_)" d="M418.115,69.729h3.269v18.794c0,2.117,0.356,4.067,1.073,5.848c0.718,1.78,1.765,3.313,3.14,4.598
		c1.377,1.283,3.053,2.286,5.031,3.009c1.979,0.72,4.198,1.082,6.666,1.082c2.979,0,5.315-0.43,7.008-1.285
		c1.691-0.856,2.953-1.882,3.785-3.075c0.829-1.196,1.332-2.435,1.504-3.719c0.172-1.285,0.258-2.378,0.258-3.279V69.729h3.27
		v21.497c0,0.722-0.03,1.566-0.086,2.537c-0.059,0.967-0.229,1.97-0.518,3.007s-0.76,2.063-1.418,3.076
		c-0.66,1.015-1.563,1.927-2.709,2.738c-1.148,0.811-2.623,1.463-4.431,1.96c-1.807,0.494-3.998,0.744-6.577,0.744
		c-1.722,0-3.412-0.182-5.074-0.543c-1.664-0.359-3.197-0.9-4.603-1.622c-1.405-0.721-2.637-1.589-3.696-2.602
		c-1.063-1.016-1.879-2.176-2.451-3.483h-0.172v7.438h-3.269V69.729z"/>
	
		<linearGradient id="SVGID_10_" gradientUnits="userSpaceOnUse" x1="494.5276" y1="-122.5735" x2="494.5276" y2="-33.7321" gradientTransform="matrix(1 0 0 -1 -14.2554 4.4253)">
		<stop  offset="0.0711" style="stop-color:#FFFFFF;stop-opacity:0"/>
		<stop  offset="0.9442" style="stop-color:#FFFFFF;stop-opacity:0.94"/>
		<stop  offset="1" style="stop-color:#FFFFFF"/>
	</linearGradient>
	<path fill="url(#SVGID_10_)" d="M499.729,86.766c0.172,2.478-0.102,4.844-0.818,7.099c-0.717,2.253-1.877,4.226-3.481,5.915
		c-1.605,1.691-3.67,3.03-6.191,4.022c-2.522,0.99-5.504,1.487-8.942,1.487c-3.326,0-6.224-0.53-8.688-1.59
		s-4.514-2.467-6.147-4.226c-1.636-1.759-2.839-3.764-3.611-6.018c-0.775-2.254-1.133-4.575-1.076-6.963
		c-0.057-2.389,0.33-4.654,1.162-6.795c0.83-2.141,2.063-4.012,3.697-5.61c1.635-1.601,3.684-2.862,6.147-3.784
		c2.465-0.924,5.303-1.388,8.517-1.388c5.272,0,9.559,1.07,12.854,3.212c3.297,2.14,5.375,5.262,6.236,9.363h-3.271
		c-0.803-3.244-2.594-5.78-5.375-7.604c-2.78-1.826-6.264-2.739-10.446-2.739c-2.752,0-5.146,0.429-7.183,1.286
		c-2.035,0.854-3.74,2.003-5.117,3.446c-1.377,1.44-2.395,3.109-3.053,5.002c-0.66,1.895-0.961,3.854-0.902,5.883L499.729,86.766
		L499.729,86.766z M464.038,88.997c0.173,1.711,0.658,3.414,1.461,5.104c0.804,1.688,1.894,3.198,3.269,4.528
		c1.377,1.328,3.022,2.399,4.945,3.211c1.92,0.812,4.112,1.218,6.58,1.218c2.521,0,4.771-0.396,6.75-1.186
		c1.979-0.788,3.653-1.825,5.03-3.107c1.375-1.285,2.437-2.783,3.183-4.496c0.743-1.713,1.146-3.472,1.205-5.272H464.038z"/>
	
		<linearGradient id="SVGID_11_" gradientUnits="userSpaceOnUse" x1="537.5051" y1="-122.5735" x2="537.5051" y2="-33.7321" gradientTransform="matrix(1 0 0 -1 -14.2554 4.4253)">
		<stop  offset="0.0711" style="stop-color:#FFFFFF;stop-opacity:0"/>
		<stop  offset="0.9442" style="stop-color:#FFFFFF;stop-opacity:0.94"/>
		<stop  offset="1" style="stop-color:#FFFFFF"/>
	</linearGradient>
	<path fill="url(#SVGID_11_)" d="M505.661,81.29c0.058-2.026,0.545-3.81,1.461-5.341c0.918-1.532,2.181-2.828,3.785-3.888
		c1.604-1.061,3.482-1.85,5.633-2.366c2.151-0.517,4.484-0.778,7.011-0.778c1.946,0,3.938,0.146,5.977,0.44
		c2.033,0.292,3.883,0.811,5.547,1.554c1.662,0.744,3.037,1.725,4.127,2.941c1.091,1.217,1.636,2.771,1.636,4.665
		c0,1.803-0.402,3.288-1.203,4.462c-0.806,1.171-1.908,2.129-3.313,2.873c-1.403,0.743-3.065,1.328-4.987,1.757
		c-1.92,0.429-3.972,0.8-6.148,1.115c-1.777,0.314-3.541,0.632-5.289,0.946c-1.75,0.314-3.326,0.731-4.729,1.25
		c-1.404,0.519-2.537,1.206-3.396,2.063c-0.859,0.854-1.289,1.981-1.289,3.379c0,1.218,0.387,2.254,1.16,3.11
		c0.772,0.854,1.764,1.556,2.967,2.097c1.205,0.54,2.566,0.924,4.086,1.147c1.519,0.227,3.023,0.34,4.515,0.34
		c1.836,0,3.555-0.169,5.159-0.51c1.605-0.336,2.98-0.854,4.13-1.554c1.146-0.698,2.063-1.612,2.752-2.737
		c0.688-1.128,1.03-2.479,1.03-4.057h3.271c0,1.983-0.418,3.674-1.248,5.071c-0.832,1.395-1.979,2.545-3.439,3.444
		c-1.463,0.902-3.182,1.557-5.16,1.963c-1.978,0.405-4.143,0.608-6.493,0.608c-1.892,0-3.783-0.148-5.677-0.439
		c-1.891-0.294-3.598-0.778-5.116-1.454c-1.521-0.678-2.767-1.588-3.74-2.736c-0.976-1.15-1.463-2.582-1.463-4.295
		c0-1.756,0.432-3.21,1.291-4.359c0.858-1.149,2.006-2.072,3.438-2.771c1.435-0.697,3.066-1.25,4.902-1.654
		c1.834-0.406,3.697-0.769,5.59-1.083s3.742-0.632,5.547-0.945c1.807-0.316,3.426-0.743,4.859-1.283
		c1.432-0.543,2.58-1.264,3.438-2.165c0.861-0.903,1.291-2.096,1.291-3.582c0-1.488-0.461-2.716-1.377-3.686
		c-0.918-0.97-2.078-1.725-3.481-2.266c-1.406-0.54-2.924-0.912-4.56-1.115c-1.633-0.205-3.168-0.305-4.6-0.305
		c-2.008,0-3.871,0.226-5.592,0.677c-1.72,0.451-3.226,1.115-4.515,1.995c-1.291,0.879-2.338,1.936-3.139,3.177
		c-0.805,1.239-1.262,2.669-1.377,4.293L505.661,81.29L505.661,81.29z"/>
</g>
<g>
	<path fill="#FFFFFF" d="M42.09,65.981h0.172l12.04-40.42h4.386l12.126,40.42h0.172l12.385-40.42h3.611L72.792,69.765H68.75
		L56.624,29.689h-0.172L44.24,69.766h-4.129L26.094,25.562h3.526L42.09,65.981z"/>
	<path fill="#FFFFFF" d="M92.399,17.22V8.362h3.269v8.858H92.399z M92.399,69.766V25.562h3.269v44.204H92.399z"/>
	<path fill="#FFFFFF" d="M106.073,25.562h3.269v9.46h0.172c0.573-1.662,1.39-3.14,2.451-4.429c1.06-1.29,2.292-2.395,3.698-3.312
		c1.403-0.917,2.938-1.604,4.601-2.063c1.663-0.458,3.354-0.688,5.074-0.688c2.58,0,4.772,0.315,6.579,0.946
		c1.806,0.632,3.28,1.462,4.429,2.494c1.146,1.031,2.049,2.192,2.709,3.482c0.659,1.29,1.131,2.595,1.419,3.913
		c0.287,1.319,0.458,2.595,0.516,3.827c0.058,1.234,0.087,2.309,0.087,3.225v27.349h-3.269v-27.95c0-1.146-0.086-2.537-0.258-4.171
		s-0.674-3.21-1.505-4.73c-0.832-1.519-2.094-2.823-3.784-3.913c-1.692-1.088-4.028-1.634-7.009-1.634
		c-2.466,0-4.688,0.459-6.665,1.376c-1.979,0.918-3.655,2.193-5.031,3.827s-2.423,3.583-3.139,5.848
		c-0.719,2.267-1.075,4.745-1.075,7.439v23.908h-3.269V25.562z"/>
	<path fill="#FFFFFF" d="M151.997,48.094c-0.059,2.579,0.242,5.073,0.902,7.481c0.659,2.408,1.678,4.53,3.054,6.364
		c1.376,1.836,3.081,3.298,5.116,4.386c2.034,1.09,4.43,1.635,7.182,1.635c4.185,0,7.667-1.161,10.449-3.482
		c2.779-2.322,4.57-5.547,5.375-9.675h3.268c-0.86,5.218-2.939,9.188-6.235,11.91c-3.297,2.725-7.583,4.085-12.856,4.085
		c-3.211,0-6.049-0.589-8.515-1.764c-2.466-1.174-4.515-2.779-6.148-4.814c-1.634-2.034-2.867-4.414-3.698-7.139
		c-0.832-2.723-1.219-5.604-1.161-8.644c-0.058-3.038,0.301-5.99,1.075-8.858c0.774-2.866,1.979-5.418,3.612-7.653
		c1.634-2.236,3.683-4.027,6.148-5.375c2.465-1.348,5.36-2.021,8.687-2.021c3.439,0,6.42,0.631,8.943,1.892
		c2.522,1.263,4.586,2.968,6.192,5.117c1.604,2.15,2.765,4.659,3.483,7.525c0.716,2.868,0.988,5.878,0.816,9.03H151.997z
		 M184.419,45.256c-0.059-2.292-0.459-4.528-1.204-6.708c-0.746-2.178-1.806-4.085-3.182-5.719s-3.054-2.952-5.031-3.956
		c-1.979-1.002-4.229-1.505-6.751-1.505c-2.466,0-4.659,0.517-6.579,1.548c-1.921,1.032-3.569,2.396-4.945,4.085
		c-1.376,1.692-2.466,3.612-3.268,5.763c-0.804,2.149-1.29,4.314-1.462,6.492H184.419z"/>
	<path fill="#FFFFFF" d="M196.889,55.06c0.114,2.063,0.573,3.885,1.376,5.461c0.802,1.578,1.849,2.924,3.139,4.042
		s2.796,1.965,4.516,2.537c1.72,0.573,3.583,0.859,5.59,0.859c1.433,0,2.967-0.129,4.601-0.388c1.635-0.258,3.152-0.73,4.559-1.419
		c1.403-0.688,2.564-1.647,3.482-2.881c0.917-1.232,1.376-2.795,1.376-4.688c0-1.892-0.43-3.411-1.29-4.558
		c-0.859-1.146-2.007-2.064-3.439-2.752c-1.435-0.688-3.053-1.232-4.859-1.634c-1.806-0.4-3.654-0.803-5.547-1.204
		c-1.892-0.4-3.756-0.86-5.59-1.376c-1.835-0.517-3.469-1.217-4.902-2.107c-1.434-0.888-2.58-2.063-3.439-3.525
		c-0.86-1.463-1.29-3.312-1.29-5.548c0-2.178,0.486-3.999,1.462-5.461c0.974-1.462,2.221-2.623,3.741-3.482
		c1.518-0.86,3.225-1.476,5.117-1.85c1.892-0.373,3.783-0.559,5.676-0.559c2.35,0,4.515,0.258,6.493,0.774
		c1.978,0.516,3.697,1.348,5.159,2.493c1.463,1.147,2.608,2.609,3.44,4.387c0.831,1.777,1.247,3.928,1.247,6.449h-3.269
		c0-2.006-0.344-3.727-1.031-5.159c-0.688-1.434-1.606-2.594-2.752-3.483c-1.148-0.888-2.524-1.548-4.128-1.978
		c-1.605-0.431-3.326-0.646-5.16-0.646c-1.492,0-2.997,0.145-4.516,0.43c-1.52,0.287-2.881,0.774-4.085,1.463
		c-1.204,0.688-2.192,1.577-2.967,2.665c-0.773,1.091-1.161,2.408-1.161,3.956c0,1.777,0.431,3.212,1.29,4.301
		c0.86,1.09,1.991,1.964,3.397,2.623c1.403,0.659,2.979,1.189,4.729,1.591c1.748,0.401,3.512,0.804,5.289,1.204
		c2.178,0.401,4.228,0.875,6.149,1.419c1.92,0.545,3.583,1.29,4.988,2.235c1.403,0.946,2.507,2.165,3.311,3.655
		c0.802,1.492,1.204,3.383,1.204,5.676c0,2.407-0.545,4.387-1.634,5.935c-1.091,1.548-2.467,2.795-4.128,3.741
		c-1.664,0.945-3.513,1.604-5.548,1.978c-2.035,0.373-4.027,0.56-5.977,0.56c-2.523,0-4.859-0.331-7.009-0.988
		c-2.15-0.658-4.029-1.662-5.633-3.011c-1.605-1.347-2.867-2.994-3.784-4.944c-0.918-1.948-1.406-4.214-1.462-6.794H196.889z"/>
	<path fill="#FFFFFF" d="M297,55.465c3.7-4,6.801-9.2,6.801-11.7c0-1.601-1.101-2.2-4.5-2.301l0.899-3.3
		c3.5,0.3,5.199,0.4,7.199,0.4c1.9,0,3.603-0.101,7.301-0.4l-0.799,3.3c-4.701,0.301-5.201,0.7-7.102,5.102
		c-2.601,5.7-4.5,8.6-8,12.301l1.899,3.7c1.9,3.8,3.4,4.8,7.802,4.8l-0.701,2.7c-3.601-0.2-5.5-0.3-7.701-0.3
		c-2.199,0-4,0.1-7.1,0.3l-2.302-4.7c-5.6,3.9-10.399,5.5-16,5.5c-10.4,0-17.601-6.1-17.601-15.101c0-5.801,2.6-11.302,7.7-15.901
		c2.1-1.9,4.2-3.4,10.201-7.3c-3.4-7.701-4-9.602-4-12.801c0-8.602,8.4-15.602,18.802-15.602c8,0,13.198,4.3,13.198,10.801
		c0,4.101-2.1,8.4-5.999,12.102c-2.101,2-5,4.1-10.101,7.201L297,55.465z M278.499,39.764c-8.3,5.8-11.602,10.7-11.602,17.301
		c0,5.899,3.601,9.4,9.602,9.4c4.1,0,7.3-1.101,12.601-4.399L278.499,39.764z M295.9,13.062c0-3.3-2.301-5.601-5.5-5.601
		c-5.301,0-9.9,4.9-9.9,10.5c0,2.4,0.6,4.2,3.2,9.602C292.4,21.963,295.9,17.862,295.9,13.062z"/>
	<path fill="#FFFFFF" d="M354.131,65.981h0.172l12.039-40.42h4.387l12.125,40.42h0.172l12.385-40.42h3.611l-14.188,44.204h-4.041
		l-12.128-40.076h-0.172L356.28,69.765h-4.127l-14.018-44.204h3.524L354.131,65.981z"/>
	<path fill="#FFFFFF" d="M404.439,17.22V8.362h3.27v8.858H404.439z M404.439,69.766V25.562h3.27v44.204H404.439z"/>
	<path fill="#FFFFFF" d="M418.115,25.562h3.269v9.46h0.172c0.572-1.662,1.389-3.14,2.451-4.429c1.061-1.29,2.291-2.395,3.696-3.312
		c1.404-0.917,2.938-1.604,4.603-2.063c1.662-0.458,3.354-0.688,5.074-0.688c2.579,0,4.771,0.315,6.577,0.946
		c1.808,0.632,3.281,1.462,4.431,2.494c1.146,1.031,2.049,2.192,2.709,3.482c0.658,1.29,1.131,2.595,1.418,3.913
		c0.287,1.319,0.459,2.595,0.518,3.827c0.056,1.234,0.086,2.309,0.086,3.225v27.349h-3.27v-27.95c0-1.146-0.086-2.537-0.258-4.171
		s-0.675-3.21-1.504-4.73c-0.832-1.519-2.095-2.823-3.785-3.913c-1.691-1.088-4.027-1.634-7.008-1.634
		c-2.468,0-4.688,0.459-6.666,1.376c-1.979,0.918-3.654,2.193-5.031,3.827c-1.375,1.634-2.422,3.583-3.14,5.848
		c-0.717,2.267-1.073,4.745-1.073,7.439v23.908h-3.269V25.562z"/>
	<path fill="#FFFFFF" d="M464.038,48.094c-0.059,2.579,0.242,5.073,0.902,7.481c0.658,2.408,1.676,4.53,3.053,6.364
		c1.377,1.836,3.082,3.298,5.117,4.386c2.035,1.09,4.43,1.635,7.183,1.635c4.184,0,7.666-1.161,10.446-3.482
		c2.781-2.322,4.572-5.547,5.375-9.675h3.271c-0.861,5.218-2.939,9.188-6.236,11.91c-3.297,2.725-7.582,4.085-12.854,4.085
		c-3.214,0-6.052-0.589-8.517-1.764c-2.465-1.174-4.514-2.779-6.147-4.814c-1.634-2.034-2.867-4.414-3.697-7.139
		c-0.832-2.723-1.219-5.604-1.162-8.644c-0.057-3.038,0.301-5.99,1.076-8.858c0.772-2.866,1.977-5.418,3.611-7.653
		c1.635-2.236,3.684-4.027,6.147-5.375c2.465-1.348,5.361-2.021,8.688-2.021c3.438,0,6.42,0.631,8.942,1.892
		c2.521,1.263,4.586,2.968,6.191,5.117c1.604,2.15,2.766,4.659,3.481,7.525c0.718,2.868,0.99,5.878,0.818,9.03H464.038z
		 M496.461,45.256c-0.06-2.292-0.462-4.528-1.205-6.708c-0.746-2.178-1.808-4.085-3.183-5.719c-1.377-1.634-3.053-2.952-5.03-3.956
		c-1.979-1.002-4.229-1.505-6.75-1.505c-2.468,0-4.66,0.517-6.58,1.548c-1.923,1.032-3.568,2.396-4.945,4.085
		c-1.375,1.692-2.465,3.612-3.269,5.763c-0.803,2.149-1.288,4.314-1.461,6.492H496.461z"/>
	<path fill="#FFFFFF" d="M508.93,55.06c0.115,2.063,0.572,3.885,1.377,5.461c0.801,1.578,1.848,2.924,3.139,4.042
		c1.289,1.118,2.795,1.965,4.515,2.537c1.721,0.573,3.584,0.859,5.592,0.859c1.432,0,2.967-0.129,4.6-0.388
		c1.635-0.258,3.152-0.73,4.559-1.419c1.404-0.688,2.564-1.647,3.482-2.881c0.916-1.232,1.377-2.795,1.377-4.688
		c0-1.892-0.43-3.411-1.291-4.558c-0.859-1.146-2.008-2.064-3.438-2.752c-1.435-0.688-3.054-1.232-4.859-1.634
		c-1.805-0.4-3.654-0.803-5.547-1.204c-1.894-0.4-3.756-0.86-5.59-1.376c-1.836-0.517-3.47-1.217-4.902-2.107
		c-1.434-0.888-2.58-2.063-3.439-3.525c-0.858-1.463-1.291-3.312-1.291-5.548c0-2.178,0.488-3.999,1.464-5.461
		c0.975-1.462,2.221-2.623,3.739-3.482c1.521-0.86,3.228-1.476,5.117-1.85c1.894-0.373,3.785-0.559,5.676-0.559
		c2.353,0,4.517,0.258,6.494,0.774c1.979,0.516,3.697,1.348,5.16,2.493c1.461,1.147,2.607,2.609,3.439,4.387
		c0.83,1.777,1.248,3.928,1.248,6.449h-3.271c0-2.006-0.344-3.727-1.031-5.159c-0.688-1.434-1.604-2.594-2.752-3.483
		c-1.147-0.888-2.522-1.548-4.129-1.978c-1.604-0.431-3.324-0.646-5.16-0.646c-1.489,0-2.996,0.145-4.514,0.43
		c-1.52,0.287-2.881,0.774-4.086,1.463c-1.203,0.688-2.193,1.577-2.967,2.665c-0.773,1.091-1.16,2.408-1.16,3.956
		c0,1.777,0.43,3.212,1.289,4.301c0.859,1.09,1.992,1.964,3.396,2.623c1.404,0.659,2.98,1.189,4.73,1.591
		c1.748,0.401,3.512,0.804,5.289,1.204c2.178,0.401,4.229,0.875,6.147,1.419c1.922,0.545,3.584,1.29,4.988,2.235
		c1.404,0.946,2.508,2.165,3.313,3.655c0.801,1.492,1.202,3.383,1.202,5.676c0,2.407-0.545,4.387-1.635,5.935
		s-2.465,2.795-4.127,3.741c-1.664,0.945-3.514,1.604-5.547,1.978c-2.037,0.373-4.029,0.56-5.977,0.56
		c-2.525,0-4.859-0.331-7.011-0.988c-2.15-0.658-4.028-1.662-5.633-3.011c-1.604-1.347-2.867-2.994-3.785-4.944
		c-0.916-1.948-1.403-4.214-1.461-6.794H508.93z"/>
</g>
</svg>
